<svg width="1440" height="818" viewBox="0 0 1440 818" fill="none" xmlns="http://www.w3.org/2000/svg">
<path d="M14.2683 703.909L0 701.987V0H1440V698.144L1420.79 698.785C1420.24 698.571 1418.6 698.272 1416.4 698.785C1414.21 699.297 1412.2 703.268 1411.46 705.19H1403.78C1399.39 705.19 1402.13 707.111 1397.2 707.752C1392.26 708.392 1388.41 709.033 1383.48 709.673C1379.52 710.186 1362.07 713.303 1353.84 714.797C1353.48 714.797 1352.3 714.157 1350.55 711.595C1342.21 714.669 1329.15 715.438 1323.66 715.438V718L1322.01 717.359L1304.45 719.921L1303.9 724.405L1301.71 720.562L1289.09 721.843L1289.63 725.686C1289.27 725.259 1288.21 724.149 1286.89 723.124C1284.15 722.483 1268.23 726.326 1253.41 730.81C1241.56 734.397 1222.5 732.304 1214.45 730.81C1214.45 731.237 1214.34 732.347 1213.9 733.372C1213.35 734.653 1206.22 732.731 1204.02 734.653C1202.38 733.372 1196.89 735.293 1195.79 735.934C1194.7 736.574 1194.7 738.496 1194.15 737.215C1193.71 736.19 1187.74 735.934 1184.82 735.934C1185 736.788 1185.26 738.624 1184.82 739.136C1184.38 739.649 1175.49 738.923 1171.1 738.496L1171.65 741.698H1161.77C1160.67 741.698 1159.57 746.182 1157.38 746.822C1155.62 747.335 1145.67 748.317 1140.91 748.744L1139.27 744.901C1127.56 747.249 1101.07 752.587 1088.78 755.149C1074.51 756.43 1077.8 756.43 1067.93 758.992C1058.6 760.913 1042.13 762.194 1039.39 763.475C1036.65 764.756 1015.79 770.521 1000.98 773.723C999.659 772.186 1003.35 769.667 1005.37 768.599C996.585 768.599 971.341 778.207 953.781 778.847C936.22 778.207 927.439 782.05 921.951 785.252C920.305 783.971 924.695 782.05 925.793 779.488C919.756 781.409 910.976 783.331 899.451 786.533C887.927 789.736 858.841 792.298 853.902 791.657C848.963 791.017 853.354 791.017 849.512 791.017C846.439 791.017 840.549 796.141 837.988 798.703H828.11C825.915 798.703 817.683 803.827 815.488 802.546C813.293 801.265 758.963 812.794 753.476 813.434C749.085 813.947 728.963 816.21 719.451 817.277C719.451 816.637 719.232 815.1 718.354 814.075C717.256 812.794 715.061 816.637 713.963 816.637C713.085 816.637 713.431 815.783 713.714 815.356C713.065 815.142 711.549 814.715 710.671 814.715C709.573 814.715 709.573 817.277 709.024 817.918C708.585 818.43 708.11 816.423 707.927 815.356C705.915 814.929 701.671 813.819 700.793 812.794C699.695 811.513 699.695 814.715 698.598 814.075C697.5 813.434 698.049 813.434 697.5 812.794C696.951 812.153 698.049 814.075 682.683 814.075C670.39 814.075 660 810.232 656.341 808.31L655.793 812.153L655.244 808.31L648.659 807.67L647.561 811.513L647.012 806.389H634.939C635.122 806.389 635.488 805.876 635.488 803.827C628.024 804.852 622.5 802.973 620.671 801.905C620.488 802.119 619.902 803.058 619.024 805.108C612.439 802.546 552.073 795.5 540 792.938C527.927 790.376 526.829 795.5 522.439 789.736C518.927 785.124 506.341 785.679 500.488 786.533C498.659 785.679 494.781 783.587 493.902 782.05C492.805 780.128 486.768 776.926 486.22 777.566C485.671 778.207 489.512 779.488 483.476 779.488C477.439 779.488 439.573 774.364 431.341 773.083C424.01 771.942 414.502 767.753 412.898 766.85C413.434 767.564 414.403 770.323 414.878 771.802C413.049 770.948 408.951 769.112 407.195 768.599C405 767.959 398.963 767.318 383.049 766.678C370.629 760.68 340.489 757.038 325.944 755.872C327.558 756.234 331.047 757.524 337.5 760.913C327.402 761.426 308.415 754.722 300.183 751.306C300 750.665 298.098 749.512 291.951 750.025C285.805 750.537 270 745.541 262.866 742.979C262.134 742.339 258.366 741.186 249.146 741.698C239.927 742.211 212.012 736.361 199.207 733.372L197.561 736.574C193.171 736.147 183.732 735.165 181.098 734.653C178.463 734.14 177.439 731.023 177.256 729.529H167.927V726.967C167.927 726.454 158.049 726.753 153.11 726.967C153.659 726.54 154.427 725.43 153.11 724.405C151.793 723.38 145.976 725.259 143.232 726.326C143.415 726.113 143.78 725.302 143.78 723.764C143.78 722.227 130.976 721.416 124.573 721.202C124.939 720.775 125.341 719.921 124.024 719.921C122.378 719.921 100.427 721.843 94.939 721.202C90.5488 720.69 64.2073 714.157 51.5854 710.954L51.0366 714.157L49.939 710.954L36.7683 708.392L35.122 710.954V707.752L16.4634 705.83L14.2683 707.752V703.909Z" fill="url(#paint0_linear_1795_20319)" style="mix-blend-mode:lighten"/>
<defs>
<linearGradient id="paint0_linear_1795_20319" x1="720" y1="583.731" x2="720" y2="818" gradientUnits="userSpaceOnUse">
<stop stop-opacity="0"/>
<stop offset="1" stop-color="#35CFD5" stop-opacity="0.22"/>
</linearGradient>
</defs>
</svg>
