<svg width="248" height="144" viewBox="0 0 248 144" fill="none" xmlns="http://www.w3.org/2000/svg">
    <path d="M244 0H4C1.79086 0 0 1.79086 0 4V112.283C0 114.145 1.28477 115.76 3.09888 116.18L122.518 143.793C123.108 143.929 123.722 143.93 124.312 143.794L244.893 116.175C246.711 115.759 248 114.141 248 112.276V4C248 1.79086 246.209 0 244 0Z" fill="url(#paint0_linear)"/>
    <path d="M237 5.92346H10C8.89543 5.92346 8 6.81889 8 7.92346V107.755C8 108.693 8.65091 109.504 9.56584 109.708L122.523 134.827C122.808 134.891 123.103 134.891 123.387 134.828L237.43 109.705C238.347 109.503 239 108.691 239 107.752V7.92346C239 6.81889 238.105 5.92346 237 5.92346Z" stroke="url(#paint1_linear)" stroke-linecap="round" stroke-linejoin="round" stroke-dasharray="6 6"/>
    <defs>
        <linearGradient id="paint0_linear" x1="124" y1="0" x2="124" y2="144" gradientUnits="userSpaceOnUse">
            <stop stop-color="#A6680C"/>
            <stop offset="1" stop-color="#552508"/>
        </linearGradient>
        <linearGradient id="paint1_linear" x1="123.5" y1="5.92346" x2="123.5" y2="134.923" gradientUnits="userSpaceOnUse">
            <stop stop-color="#D1BB37"/>
            <stop offset="1" stop-color="#726236"/>
        </linearGradient>
    </defs>
</svg>
