<svg width="44" height="48" viewBox="0 0 44 48" fill="none" xmlns="http://www.w3.org/2000/svg">
    <path d="M0.5 6C0.5 2.96244 2.96243 0.5 6 0.5H38C41.0376 0.5 43.5 2.96243 43.5 6V34.3864C43.5 36.5656 42.2133 38.5394 40.2193 39.4187L24.2193 46.4748C22.8055 47.0983 21.1945 47.0983 19.7807 46.4748L3.7807 39.4187C1.78671 38.5394 0.5 36.5656 0.5 34.3864V6Z" fill="#0E3419"/>
    <path d="M0.5 6C0.5 2.96244 2.96243 0.5 6 0.5H38C41.0376 0.5 43.5 2.96243 43.5 6V34.3864C43.5 36.5656 42.2133 38.5394 40.2193 39.4187L24.2193 46.4748C22.8055 47.0983 21.1945 47.0983 19.7807 46.4748L3.7807 39.4187C1.78671 38.5394 0.5 36.5656 0.5 34.3864V6Z" fill="url(#paint0_radial_627:1788)" fill-opacity="0.4"/>
    <path d="M0.5 6C0.5 2.96244 2.96243 0.5 6 0.5H38C41.0376 0.5 43.5 2.96243 43.5 6V34.3864C43.5 36.5656 42.2133 38.5394 40.2193 39.4187L24.2193 46.4748C22.8055 47.0983 21.1945 47.0983 19.7807 46.4748L3.7807 39.4187C1.78671 38.5394 0.5 36.5656 0.5 34.3864V6Z" stroke="url(#paint1_linear_627:1788)"/>
    <rect x="8" y="7" width="28" height="28" rx="14" fill="#1275B1"/>
    <path d="M18.6186 14.6921C18.6186 15.6267 17.8085 16.3843 16.8093 16.3843C15.81 16.3843 15 15.6267 15 14.6921C15 13.7576 15.81 13 16.8093 13C17.8085 13 18.6186 13.7576 18.6186 14.6921Z" fill="white"/>
    <path d="M15.2474 17.6281H18.3402V27H15.2474V17.6281Z" fill="white"/>
    <path d="M23.3196 17.6281H20.2268V27H23.3196C23.3196 27 23.3196 24.0496 23.3196 22.2049C23.3196 21.0976 23.6977 19.9855 25.2062 19.9855C26.911 19.9855 26.9008 21.4345 26.8928 22.5571C26.8824 24.0244 26.9072 25.5219 26.9072 27H30V22.0537C29.9738 18.8954 29.1508 17.4401 26.4433 17.4401C24.8354 17.4401 23.8387 18.1701 23.3196 18.8305V17.6281Z" fill="white"/>
    <defs>
        <radialGradient id="paint0_radial_627:1788" cx="0" cy="0" r="1" gradientUnits="userSpaceOnUse" gradientTransform="translate(22 48) rotate(-90) scale(32.2759 29.5862)">
            <stop stop-color="#EBD043"/>
            <stop offset="1" stop-color="#7C863D"/>
        </radialGradient>
        <linearGradient id="paint1_linear_627:1788" x1="22" y1="0" x2="22" y2="48" gradientUnits="userSpaceOnUse">
            <stop stop-color="#365F42"/>
            <stop offset="1" stop-color="#073715"/>
        </linearGradient>
    </defs>
</svg>
